<svg width="20" height="20" viewBox="0 0 20 20" fill="none" xmlns="http://www.w3.org/2000/svg">
<path d="M14.1666 3.33301C13.7063 3.33301 13.3333 3.70611 13.3333 4.16634C13.3333 4.62657 13.7063 4.99967 14.1666 4.99967H17.4999C17.9602 4.99967 18.3333 4.62657 18.3333 4.16634C18.3333 3.70611 17.9602 3.33301 17.4999 3.33301H14.1666Z" fill="#777E91"/>
<path fill-rule="evenodd" clip-rule="evenodd" d="M11.6667 10.8337C11.6667 8.53249 13.5322 6.66699 15.8334 6.66699C18.1346 6.66699 20.0001 8.53249 20.0001 10.8337V11.667C20.0001 12.1272 19.627 12.5003 19.1667 12.5003H13.3334C13.3334 13.8811 14.4527 15.0003 15.8334 15.0003C16.4147 15.0003 16.9495 14.802 17.3741 14.4693C17.5958 14.2955 17.8578 14.167 18.1397 14.167C18.8537 14.167 19.3107 14.9046 18.8111 15.4149C18.0547 16.1875 17.0001 16.667 15.8334 16.667C13.5322 16.667 11.6667 14.8015 11.6667 12.5003V10.8337ZM15.8334 8.33366C14.4527 8.33366 13.3334 9.45291 13.3334 10.8337H18.3334C18.3334 9.45291 17.2142 8.33366 15.8334 8.33366Z" fill="#777E91"/>
<path fill-rule="evenodd" clip-rule="evenodd" d="M1.66667 4.99967V8.33301H5.83333C6.75381 8.33301 7.5 7.58682 7.5 6.66634C7.5 5.74587 6.75381 4.99967 5.83333 4.99967H1.66667ZM8.16648 9.04701C8.78375 8.44201 9.16667 7.5989 9.16667 6.66634C9.16667 4.82539 7.67428 3.33301 5.83333 3.33301H1.33333C0.596953 3.33301 0 3.92997 0 4.66634V15.2378C0 16.0268 0.639594 16.6663 1.42858 16.6663H5.83333C8.13452 16.6663 10 14.8008 10 12.4997C10 11.0629 9.27283 9.79609 8.16648 9.04701ZM1.66667 9.99967V14.9997H5.83333C7.21404 14.9997 8.33333 13.8804 8.33333 12.4997C8.33333 11.1189 7.21404 9.99967 5.83333 9.99967H1.66667Z" fill="#777E91"/>
</svg>
