<svg width="20" height="20" viewBox="0 0 20 20" fill="none" xmlns="http://www.w3.org/2000/svg">
<path fill-rule="evenodd" clip-rule="evenodd" d="M10.0001 16.667C13.682 16.667 16.6667 13.6822 16.6667 10.0003C16.6667 6.31843 13.682 3.33366 10.0001 3.33366C6.31818 3.33366 3.33341 6.31843 3.33341 10.0003C3.33341 13.6822 6.31818 16.667 10.0001 16.667ZM10.0001 18.3337C14.6024 18.3337 18.3334 14.6027 18.3334 10.0003C18.3334 5.39795 14.6024 1.66699 10.0001 1.66699C5.39771 1.66699 1.66675 5.39795 1.66675 10.0003C1.66675 14.6027 5.39771 18.3337 10.0001 18.3337Z" fill="#777E91"/>
<path d="M12.8952 17.8169C12.5993 15.7085 12.1063 13.7949 11.4124 11.986C9.71383 12.8095 7.814 14.2485 5.2017 16.8144C4.74465 16.4919 4.32149 16.1246 3.93861 15.7189C6.68225 13.0133 8.77775 11.3956 10.7635 10.4489C10.5087 9.89662 10.2341 9.3522 9.93925 8.81278C7.60135 9.54962 4.93565 9.93787 1.66675 9.99337C1.66721 9.42137 1.72531 8.86278 1.83556 8.32318C4.72051 8.26137 7.05426 7.92746 9.07416 7.334C8.1366 5.82958 7.03771 4.34462 5.77483 2.816C6.26726 2.52577 6.79213 2.28472 7.3427 2.09961C8.61708 3.66591 9.73366 5.20534 10.6898 6.77966C12.4862 6.06962 14.0785 5.11131 15.6679 3.89123C16.0765 4.27043 16.4469 4.69011 16.7728 5.14388C15.1197 6.42263 13.4338 7.45905 11.5244 8.24035C11.8054 8.76512 12.069 9.2957 12.3152 9.8342C14.2041 9.23578 16.0633 9.17395 18.2923 9.16762C18.3195 9.44145 18.3334 9.71928 18.3334 10.0003C18.3334 10.2819 18.3194 10.5602 18.2922 10.8346C16.1386 10.8423 14.5414 10.903 12.9642 11.3778C13.6414 13.1407 14.1424 15.0045 14.4641 17.0384C13.9736 17.3501 13.4482 17.612 12.8952 17.8169Z" fill="#777E91"/>
</svg>
