<svg width="20" height="20" viewBox="0 0 20 20" fill="none" xmlns="http://www.w3.org/2000/svg">
<path fill-rule="evenodd" clip-rule="evenodd" d="M10.0001 16.6666C13.682 16.6666 16.6667 13.6819 16.6667 9.99996C16.6667 6.31806 13.682 3.33329 10.0001 3.33329C6.31818 3.33329 3.33341 6.31806 3.33341 9.99996C3.33341 13.6819 6.31818 16.6666 10.0001 16.6666ZM10.0001 18.3333C14.6024 18.3333 18.3334 14.6023 18.3334 9.99996C18.3334 5.39758 14.6024 1.66663 10.0001 1.66663C5.39771 1.66663 1.66675 5.39758 1.66675 9.99996C1.66675 14.6023 5.39771 18.3333 10.0001 18.3333Z" fill="#777E91"/>
<path d="M10.0001 8.33337C10.0001 7.87314 10.3732 7.50004 10.8334 7.50004H11.6667C12.127 7.50004 12.5001 7.12695 12.5001 6.66671C12.5001 6.20647 12.127 5.83337 11.6667 5.83337H10.8334C9.45266 5.83337 8.33341 6.95267 8.33341 8.33337V10H7.50008C7.03985 10 6.66675 10.3731 6.66675 10.8334C6.66675 11.2936 7.03984 11.6667 7.50008 11.6667H8.33341V16.6667C8.33341 17.127 8.7065 17.5 9.16675 17.5C9.627 17.5 10.0001 17.127 10.0001 16.6667V11.6667H11.6667C12.127 11.6667 12.5001 11.2936 12.5001 10.8334C12.5001 10.3731 12.127 10 11.6667 10H10.0001V8.33337Z" fill="#777E91"/>
</svg>
