<svg width="125" height="20" viewBox="0 0 125 20" fill="none" xmlns="http://www.w3.org/2000/svg">
<path d="M11 2.248V4.96H4.016V9.256H9.368V11.92H4.016V19H0.656V2.248H11ZM14.6066 4.12C14.0146 4.12 13.5186 3.936 13.1186 3.568C12.7346 3.184 12.5426 2.712 12.5426 2.152C12.5426 1.592 12.7346 1.128 13.1186 0.759999C13.5186 0.375999 14.0146 0.183999 14.6066 0.183999C15.1986 0.183999 15.6866 0.375999 16.0706 0.759999C16.4706 1.128 16.6706 1.592 16.6706 2.152C16.6706 2.712 16.4706 3.184 16.0706 3.568C15.6866 3.936 15.1986 4.12 14.6066 4.12ZM16.2626 5.704V19H12.9026V5.704H16.2626ZM23.0143 8.464V14.896C23.0143 15.344 23.1183 15.672 23.3263 15.88C23.5503 16.072 23.9183 16.168 24.4303 16.168H25.9903V19H23.8783C21.0463 19 19.6303 17.624 19.6303 14.872V8.464H18.0463V5.704H19.6303V2.416H23.0143V5.704H25.9903V8.464H23.0143ZM35.2949 5.512C36.8789 5.512 38.1589 6.016 39.1349 7.024C40.1109 8.016 40.5989 9.408 40.5989 11.2V19H37.2389V11.656C37.2389 10.6 36.9749 9.792 36.4469 9.232C35.9189 8.656 35.1989 8.368 34.2869 8.368C33.3589 8.368 32.6229 8.656 32.0789 9.232C31.5509 9.792 31.2869 10.6 31.2869 11.656V19H27.9269V5.704H31.2869V7.36C31.7349 6.784 32.3029 6.336 32.9909 6.016C33.6949 5.68 34.4629 5.512 35.2949 5.512ZM55.6741 12.064C55.6741 12.544 55.6421 12.976 55.5781 13.36H45.8581C45.9381 14.32 46.2741 15.072 46.8661 15.616C47.4581 16.16 48.1861 16.432 49.0501 16.432C50.2981 16.432 51.1861 15.896 51.7141 14.824H55.3381C54.9541 16.104 54.2181 17.16 53.1301 17.992C52.0421 18.808 50.7061 19.216 49.1221 19.216C47.8421 19.216 46.6901 18.936 45.6661 18.376C44.6581 17.8 43.8661 16.992 43.2901 15.952C42.7301 14.912 42.4501 13.712 42.4501 12.352C42.4501 10.976 42.7301 9.768 43.2901 8.728C43.8501 7.688 44.6341 6.888 45.6421 6.328C46.6501 5.768 47.8101 5.488 49.1221 5.488C50.3861 5.488 51.5141 5.76 52.5061 6.304C53.5141 6.848 54.2901 7.624 54.8341 8.632C55.3941 9.624 55.6741 10.768 55.6741 12.064ZM52.1941 11.104C52.1781 10.24 51.8661 9.552 51.2581 9.04C50.6501 8.512 49.9061 8.248 49.0261 8.248C48.1941 8.248 47.4901 8.504 46.9141 9.016C46.3541 9.512 46.0101 10.208 45.8821 11.104H52.1941ZM62.7346 19.216C61.6466 19.216 60.6706 19.024 59.8066 18.64C58.9426 18.24 58.2546 17.704 57.7426 17.032C57.2466 16.36 56.9746 15.616 56.9266 14.8H60.3106C60.3746 15.312 60.6226 15.736 61.0546 16.072C61.5026 16.408 62.0546 16.576 62.7106 16.576C63.3506 16.576 63.8466 16.448 64.1986 16.192C64.5666 15.936 64.7506 15.608 64.7506 15.208C64.7506 14.776 64.5266 14.456 64.0786 14.248C63.6466 14.024 62.9506 13.784 61.9906 13.528C60.9986 13.288 60.1826 13.04 59.5426 12.784C58.9186 12.528 58.3746 12.136 57.9106 11.608C57.4626 11.08 57.2386 10.368 57.2386 9.472C57.2386 8.736 57.4466 8.064 57.8626 7.456C58.2946 6.848 58.9026 6.368 59.6866 6.016C60.4866 5.664 61.4226 5.488 62.4946 5.488C64.0786 5.488 65.3426 5.888 66.2866 6.688C67.2306 7.472 67.7506 8.536 67.8466 9.88H64.6306C64.5826 9.352 64.3586 8.936 63.9586 8.632C63.5746 8.312 63.0546 8.152 62.3986 8.152C61.7906 8.152 61.3186 8.264 60.9826 8.488C60.6626 8.712 60.5026 9.024 60.5026 9.424C60.5026 9.872 60.7266 10.216 61.1746 10.456C61.6226 10.68 62.3186 10.912 63.2626 11.152C64.2226 11.392 65.0146 11.64 65.6386 11.896C66.2626 12.152 66.7986 12.552 67.2466 13.096C67.7106 13.624 67.9506 14.328 67.9666 15.208C67.9666 15.976 67.7506 16.664 67.3186 17.272C66.9026 17.88 66.2946 18.36 65.4946 18.712C64.7106 19.048 63.7906 19.216 62.7346 19.216ZM75.3328 19.216C74.2448 19.216 73.2688 19.024 72.4048 18.64C71.5408 18.24 70.8528 17.704 70.3408 17.032C69.8448 16.36 69.5728 15.616 69.5248 14.8H72.9088C72.9728 15.312 73.2208 15.736 73.6528 16.072C74.1008 16.408 74.6528 16.576 75.3088 16.576C75.9488 16.576 76.4448 16.448 76.7968 16.192C77.1648 15.936 77.3488 15.608 77.3488 15.208C77.3488 14.776 77.1248 14.456 76.6768 14.248C76.2448 14.024 75.5488 13.784 74.5888 13.528C73.5968 13.288 72.7808 13.04 72.1408 12.784C71.5168 12.528 70.9728 12.136 70.5088 11.608C70.0608 11.08 69.8368 10.368 69.8368 9.472C69.8368 8.736 70.0448 8.064 70.4608 7.456C70.8928 6.848 71.5008 6.368 72.2848 6.016C73.0848 5.664 74.0208 5.488 75.0928 5.488C76.6768 5.488 77.9408 5.888 78.8848 6.688C79.8288 7.472 80.3488 8.536 80.4448 9.88H77.2288C77.1808 9.352 76.9568 8.936 76.5568 8.632C76.1728 8.312 75.6528 8.152 74.9968 8.152C74.3888 8.152 73.9168 8.264 73.5808 8.488C73.2608 8.712 73.1008 9.024 73.1008 9.424C73.1008 9.872 73.3248 10.216 73.7728 10.456C74.2208 10.68 74.9168 10.912 75.8608 11.152C76.8208 11.392 77.6128 11.64 78.2368 11.896C78.8608 12.152 79.3968 12.552 79.8448 13.096C80.3088 13.624 80.5488 14.328 80.5648 15.208C80.5648 15.976 80.3488 16.664 79.9168 17.272C79.5008 17.88 78.8928 18.36 78.0928 18.712C77.3088 19.048 76.3888 19.216 75.3328 19.216ZM100.298 7.432C100.298 8.328 100.082 9.168 99.6496 9.952C99.2336 10.736 98.5696 11.368 97.6576 11.848C96.7616 12.328 95.6256 12.568 94.2496 12.568H91.4416V19H88.0816V2.248H94.2496C95.5456 2.248 96.6496 2.472 97.5616 2.92C98.4736 3.368 99.1536 3.984 99.6016 4.768C100.066 5.552 100.298 6.44 100.298 7.432ZM94.1056 9.856C95.0336 9.856 95.7216 9.648 96.1696 9.232C96.6176 8.8 96.8416 8.2 96.8416 7.432C96.8416 5.8 95.9296 4.984 94.1056 4.984H91.4416V9.856H94.1056ZM105.563 7.768C105.995 7.064 106.555 6.512 107.243 6.112C107.947 5.712 108.747 5.512 109.643 5.512V9.04H108.755C107.699 9.04 106.899 9.288 106.355 9.784C105.827 10.28 105.563 11.144 105.563 12.376V19H102.203V5.704H105.563V7.768ZM117.33 19.216C116.05 19.216 114.898 18.936 113.874 18.376C112.85 17.8 112.042 16.992 111.45 15.952C110.874 14.912 110.586 13.712 110.586 12.352C110.586 10.992 110.882 9.792 111.474 8.752C112.082 7.712 112.906 6.912 113.946 6.352C114.986 5.776 116.146 5.488 117.426 5.488C118.706 5.488 119.866 5.776 120.906 6.352C121.946 6.912 122.762 7.712 123.354 8.752C123.962 9.792 124.266 10.992 124.266 12.352C124.266 13.712 123.954 14.912 123.33 15.952C122.722 16.992 121.89 17.8 120.834 18.376C119.794 18.936 118.626 19.216 117.33 19.216ZM117.33 16.288C117.938 16.288 118.506 16.144 119.034 15.856C119.578 15.552 120.01 15.104 120.33 14.512C120.65 13.92 120.81 13.2 120.81 12.352C120.81 11.088 120.474 10.12 119.802 9.448C119.146 8.76 118.338 8.416 117.378 8.416C116.418 8.416 115.61 8.76 114.954 9.448C114.314 10.12 113.994 11.088 113.994 12.352C113.994 13.616 114.306 14.592 114.93 15.28C115.57 15.952 116.37 16.288 117.33 16.288Z" fill="#23262F"/>
</svg>
