<svg width="48" height="48" viewBox="0 0 48 48" xmlns="http://www.w3.org/2000/svg">
<path fill-rule="evenodd" clip-rule="evenodd" d="M24 40C32.8366 40 40 32.8366 40 24C40 15.1634 32.8366 8 24 8C15.1634 8 8 15.1634 8 24C8 32.8366 15.1634 40 24 40ZM24 44C35.0457 44 44 35.0457 44 24C44 12.9543 35.0457 4 24 4C12.9543 4 4 12.9543 4 24C4 35.0457 12.9543 44 24 44Z" fill="#23262F"/>
<path d="M12.0001 40.0015C16.8579 36.3526 20.0001 30.5433 20.0001 24C20.0001 17.4567 16.8579 11.6474 12.0001 7.99854C10.9084 8.8186 9.90324 9.7478 9.00098 10.7699C13.226 13.65 16.0001 18.501 16.0001 24C16.0001 29.499 13.226 34.35 9.00098 37.2301C9.90325 38.2522 10.9084 39.1814 12.0001 40.0015Z" fill="#23262F"/>
<path d="M36.0001 7.99854C31.1423 11.6474 28.0001 17.4567 28.0001 24C28.0001 30.5433 31.1423 36.3526 36.0001 40.0015C37.0919 39.1814 38.097 38.2522 38.9993 37.2301C34.7742 34.35 32.0001 29.499 32.0001 24C32.0001 18.501 34.7742 13.65 38.9993 10.7699C38.097 9.7478 37.0919 8.8186 36.0001 7.99854Z" fill="#23262F"/>
</svg>
