<svg width="48" height="48" viewBox="0 0 48 48"  xmlns="http://www.w3.org/2000/svg">
<path fill-rule="evenodd" clip-rule="evenodd" d="M24 44C31.732 44 38 37.732 38 30C38 22.268 31.732 16 24 16C16.268 16 10 22.268 10 30C10 37.732 16.268 44 24 44ZM24 48C33.9411 48 42 39.9411 42 30C42 20.0589 33.9411 12 24 12C14.0589 12 6 20.0589 6 30C6 39.9411 14.0589 48 24 48Z" fill="#23262F"/>
<path fill-rule="evenodd" clip-rule="evenodd" d="M17.7083 6C14.7348 6 12.8008 9.12925 14.1306 11.7889L15.789 15.1056C16.2829 16.0935 15.8825 17.2949 14.8945 17.7889C13.9066 18.2828 12.7052 17.8824 12.2113 16.8944L10.5529 13.5777C7.8933 8.2585 11.7613 2 17.7083 2H30.2919C36.239 2 40.1069 8.2585 37.4473 13.5777L35.789 16.8944C35.295 17.8824 34.0936 18.2828 33.1057 17.7889C32.1177 17.2949 31.7173 16.0935 32.2113 15.1056L33.8696 11.7889C35.1994 9.12925 33.2654 6 30.2919 6H17.7083Z" fill="#23262F"/>
</svg>
