<svg width="48" height="48" viewBox="0 0 48 48" xmlns="http://www.w3.org/2000/svg">
<path fill-rule="evenodd" clip-rule="evenodd" d="M24 42C31.732 42 38 35.732 38 28C38 20.268 31.732 14 24 14C16.268 14 10 20.268 10 28C10 35.732 16.268 42 24 42ZM24 46C33.9411 46 42 37.9411 42 28C42 18.0589 33.9411 10 24 10C14.0589 10 6 18.0589 6 28C6 37.9411 14.0589 46 24 46Z" fill="#23262F"/>
<path d="M22 20C22 18.8954 22.8954 18 24 18C25.1046 18 26 18.8954 26 20V28C26 29.1046 25.1046 30 24 30C22.8954 30 22 29.1046 22 28V20Z" fill="#23262F"/>
<path d="M20 2C18.8954 2 18 2.89543 18 4C18 5.10457 18.8954 6 20 6H28C29.1046 6 30 5.10457 30 4C30 2.89543 29.1046 2 28 2H20Z" fill="#23262F"/>
<path d="M41.4142 8.58579C40.6332 7.80474 39.3668 7.80474 38.5858 8.58579C37.8047 9.36684 37.8047 10.6332 38.5858 11.4142L40.5858 13.4142C41.3668 14.1953 42.6332 14.1953 43.4142 13.4142C44.1953 12.6332 44.1953 11.3668 43.4142 10.5858L41.4142 8.58579Z" fill="#23262F"/>
</svg>
